<svg width="180" height="180" viewBox="0 0 180 180" fill="none" xmlns="http://www.w3.org/2000/svg">
<rect width="180" height="180" rx="36" fill="#0D1117"/>
<rect x="4" y="4" width="172" height="172" rx="32" stroke="#00FFD1" stroke-width="2" stroke-opacity="0.4"/>
<g transform="translate(90,90)">
<ellipse cx="0" cy="0" rx="38" ry="48" fill="none" stroke="#00FFD1" stroke-width="3" opacity="0.9"/>
<ellipse cx="0" cy="-8" rx="24" ry="20" fill="#00FFD1" opacity="0.15"/>
<circle cx="-10" cy="-14" r="6" fill="#00FFD1"/>
<circle cx="10" cy="-14" r="6" fill="#00FFD1"/>
<circle cx="-10" cy="-14" r="2.5" fill="#0D1117"/>
<circle cx="10" cy="-14" r="2.5" fill="#0D1117"/>
<line x1="-30" y1="-30" x2="-50" y2="-50" stroke="#00FFD1" stroke-width="2.5" stroke-linecap="round"/>
<line x1="30" y1="-30" x2="50" y2="-50" stroke="#00FFD1" stroke-width="2.5" stroke-linecap="round"/>
<line x1="-36" y1="0" x2="-55" y2="-5" stroke="#00FFD1" stroke-width="2.5" stroke-linecap="round"/>
<line x1="36" y1="0" x2="55" y2="-5" stroke="#00FFD1" stroke-width="2.5" stroke-linecap="round"/>
<line x1="-30" y1="25" x2="-48" y2="38" stroke="#00FFD1" stroke-width="2.5" stroke-linecap="round"/>
<line x1="30" y1="25" x2="48" y2="38" stroke="#00FFD1" stroke-width="2.5" stroke-linecap="round"/>
<line x1="0" y1="-60" x2="0" y2="60" stroke="#FF2D78" stroke-width="1.5" opacity="0.6" stroke-dasharray="4 3"/>
<line x1="-40" y1="10" x2="40" y2="10" stroke="#FF2D78" stroke-width="1.5" opacity="0.6" stroke-dasharray="4 3"/>
</g>
</svg>
